PathFileType	4	(X/Y/Z)	D:\Long Term Storage\D'Arcy Smith\Coord9.trc
DataRate	CameraRate	NumFrames	NumMarkers	Units	OrigDataRate	OrigDataStartFrame	OrigNumFrames
120.00	120.00	      146	4	mm	120.00	3002	      4803
Frame#	Time	M1			M2			M3			M4			
		X1	Y1	Z1	X2	Y2	Z2	X3	Y3	Z3	X4	Y4	Z4	

3002	25.008	1056.89783	349.29901	386.05554	1627.06030	345.66055	420.77121							
3003	25.017	1055.99792	341.42285	401.40399	1626.48193	348.63574	400.60529							
3004	25.025	1055.13904	334.55206	417.53018	1626.69299	353.15228	381.43155							
3005	25.033	1054.50562	328.72195	434.44714	1626.20764	357.89709	364.05032							
3006	25.042	1054.01892	323.40405	451.48618	1626.25439	363.47675	348.90448							
3007	25.050	1053.66394	319.40720	468.79181	1625.48889	369.27747	336.26758							
3008	25.058	1053.50366	316.72916	486.05295	1625.60754	374.79669	326.26169							
3009	25.067	1053.45325	315.02573	502.58344	1626.43372	380.41006	318.48694							
3010	25.075	1053.24292	314.40115	518.27252	1627.14148	384.94266	312.97345							
3011	25.083	1053.84656	314.44159	533.79706	1627.93567	388.29248	309.10950							
3012	25.092	1054.09607	315.65039	547.27435	1629.43359	391.19022	306.62570							
3013	25.100	1054.27686	317.31812	559.13513	1631.45203	393.03281	305.52478							
3014	25.108	1054.79224	319.18555	568.78326	1633.56152	394.43326	305.42770							
3015	25.117	1055.26306	321.17398	576.83466	1635.80762	394.76337	305.95029							
3016	25.125	1056.33618	322.85355	583.22076	1637.55627	394.00925	307.36005							
3017	25.133	1057.92651	323.99155	587.14526	1639.96350	393.19843	309.89011							
3018	25.142	1058.70703	325.08954	588.44446	1642.29895	390.86462	311.74512							
3019	25.150	1060.30237	325.52652	587.81116	1644.13989	387.89224	314.88229							
3020	25.158	1062.12695	325.46689	584.88391	1646.74097	384.79376	318.56845							
3021	25.167	1064.07947	325.35654	579.79425	1647.99622	380.27258	323.00674							
3022	25.175	1066.35767	324.93951	572.89838	1649.96497	375.84695	328.46951							
3023	25.183	1068.82751	324.63629	564.05603	1651.22485	370.45309	334.76904							
3024	25.192	1071.27881	324.53174	553.70197	1652.91895	365.31592	342.33636							
3025	25.200	1073.99060	324.83884	541.87885	1653.63684	359.24280	351.18649							
3026	25.208	1076.68225	325.72903	528.89709	1654.91370	353.84598	361.55045							
3027	25.217	1079.17432	327.42227	513.56293	1656.00781	348.21213	373.03549							
3028	25.225	1081.48840	330.35901	498.81543	1656.65137	342.71262	386.13535							
3029	25.233	1084.78906	333.45319	483.02817	1657.44482	337.62891	400.26929							
3030	25.242	1087.41321	337.49863	466.68594	1657.87756	333.10092	415.89581							
3031	25.250	1089.81885	342.45605	450.01672	1658.40259	329.28690	432.02258							
3032	25.258	1092.51428	347.90100	433.92734	1658.46729	326.46365	449.50964							
3033	25.267	1094.68457	354.29037	416.80829	1658.53674	324.50677	467.63229							
3034	25.275	1096.72400	361.63452	400.38864	1658.43066	323.88147	486.20581							
3035	25.283	1098.24890	369.49438	384.24405	1658.31262	323.93774	504.79831							
3036	25.292	1099.80969	378.03937	368.13968	1657.73047	325.42490	523.12299							
3037	25.300	1101.23352	386.67374	352.92810	1656.96130	327.93387	540.81543							
3038	25.308	1101.60632	396.37048	338.08435	1656.00476	331.52887	557.53650							
3039	25.317	1102.54443	405.54089	324.01675	1655.04272	335.92337	572.90204							
3040	25.325	1102.93628	414.90775	310.68146	1653.85461	340.93219	586.84314							
3041	25.333	1102.94739	424.34055	298.30252	1652.74915	346.23138	599.10736							
3042	25.342	1102.82837	433.55429	286.60629	1651.54663	351.58292	609.23486							
3043	25.350	1102.29675	442.97635	275.76593	1650.40234	356.46542	617.30865							
3044	25.358	1101.77820	450.49350	266.66379	1649.40234	360.89883	623.18005							
3045	25.367	1100.60449	458.36761	257.36108	1648.66357	363.90134	626.65930							
3046	25.375	1098.76392	465.23413	249.97615	1647.95251	366.15802	627.87537							
3047	25.383	1097.25928	470.48410	243.90927	1647.38574	367.22708	627.03870							
3048	25.392	1095.45337	474.43143	239.44489	1646.78369	367.09052	623.96448							
3049	25.400	1093.00891	477.18274	236.11267	1646.41821	366.04099	619.18146							
3050	25.408	1090.20984	478.52618	234.22029	1646.01270	364.22226	612.57489							
3051	25.417	1086.91382	478.37729	233.53632	1645.96350	361.76071	604.48932							
3052	25.425	1083.31641	476.76505	234.40289	1645.71558	359.27423	594.92975							
3053	25.433	1079.43726	473.62637	236.26326	1645.61365	356.02713	584.10699							
3054	25.442	1075.57825	469.05704	239.62909	1645.66663	353.16714	572.32367							
3055	25.450	1071.11279	463.38834	243.88275	1645.74780	350.66745	559.38684							
3056	25.458	1066.85449	456.48431	249.41078	1645.68835	348.39209	545.53217							
3057	25.467	1062.57581	448.50043	256.10687	1645.61731	346.67706	530.73401							
3058	25.475	1058.18469	439.71844	263.77496	1645.66650	345.64383	514.83002							
3059	25.483	1054.00537	430.30356	273.40579	1645.50806	345.32834	498.44592							
3060	25.492	1049.67786	420.09479	283.22363	1645.58118	345.80881	481.64056							
3061	25.500	1045.61072	409.90445	293.80966	1645.39490	346.86765	464.02145							
3062	25.508	1041.57825	399.55457	305.20639	1644.93970	348.98358	446.32483							
3063	25.517	1037.95349	389.13812	317.47183	1644.46619	352.12863	428.52261							
3064	25.525	1034.56604	378.74200	330.83954	1644.04285	356.23026	410.86166							
3065	25.533	1031.49060	368.57840	344.61566	1643.34827	361.31732	393.53146							
3066	25.542	1028.82532	358.58389	359.43692	1642.36365	367.17450	376.62421							
3067	25.550	1026.58569	349.38800	375.03714	1641.27954	373.69693	360.41464							
3068	25.558	1025.13306	341.05600	391.59821	1639.89343	380.55258	344.72397							
3069	25.567	1024.02917	333.03342	408.80591	1638.46655	387.90289	329.73660							
3070	25.575	1023.20947	326.83072	426.02036	1637.06104	395.51721	315.51447							
3071	25.583	1022.74646	322.20749	443.67523	1635.16797	402.92224	301.99460							
3072	25.592	1023.12238	318.47046	461.17645	1634.17468	410.94775	289.43304							
3073	25.600	1024.20679	315.82428	479.13098	1632.13696	418.78094	277.75644							
3074	25.608	1025.48083	313.84717	495.71091	1630.31494	425.93158	267.31812							
3075	25.617	1027.12451	312.96686	511.50494	1629.00610	432.61270	257.95767							
3076	25.625	1029.58752	312.50684	526.53998	1627.48694	438.35709	249.89406							
3077	25.633	1032.47974	312.95901	540.17322	1626.53442	443.55533	242.78181							
3078	25.642	1034.67871	313.89859	551.88788	1625.38916	447.61069	236.79543							
3079	25.650	1037.86511	314.94217	562.04926	1625.36914	451.39291	231.98634							
3080	25.658	1040.36487	316.14917	570.29700	1625.58936	453.97098	228.12135							
3081	25.667	1042.98389	317.21188	575.96094	1626.02063	455.32751	225.66180							
3082	25.675	1045.56372	318.14801	579.96588	1627.98035	455.55356	224.06465							
3083	25.683	1047.98413	318.80731	581.23816	1629.19458	454.74277	223.95221							
3084	25.692	1050.73560	318.58597	580.57300	1631.16870	452.34277	225.34206							
3085	25.700	1053.40210	318.33130	577.76636	1633.73035	448.74490	228.00864							
3086	25.708	1055.72241	318.07150	572.87689	1636.75488	443.82242	232.04413							
3087	25.717	1058.06384	317.60764	566.06134	1639.65564	437.73114	238.29237							
3088	25.725	1059.90710	317.55688	557.64270	1643.07446	430.26724	246.01962							
3089	25.733	1061.90295	317.46600	547.75415	1646.46399	422.65277	255.97357							
3090	25.742	1063.87891	317.78442	536.49628	1650.13110	413.76801	266.54214							
3091	25.750	1065.57349	318.68463	524.05695	1653.85852	404.52731	279.55008							
3092	25.758	1066.80212	320.73804	510.02490	1657.53601	394.91043	294.30545							
3093	25.767	1068.18359	323.19510	495.53094	1661.35547	385.41669	310.72513							
3094	25.775	1069.38135	326.22552	480.31534	1664.99365	376.13910	328.71442							
3095	25.783	1070.41443	330.15292	464.40002	1668.39185	367.46542	347.96555							
3096	25.792	1071.59473	335.00510	448.25027	1671.58350	359.67676	368.11270							
3097	25.800	1072.87476	340.10046	432.23489	1674.29651	352.75906	389.01303							
3098	25.808	1073.67456	346.52438	415.65659	1676.31067	347.16190	410.32852							
3099	25.817	1074.26404	353.70120	399.39352	1678.01135	342.64792	431.98935							
3100	25.825	1075.12830	361.32816	382.96420	1679.15356	339.36270	453.40790							
3101	25.833	1075.64087	369.87210	367.28220	1679.65515	337.51056	474.48749							
3102	25.842	1076.00159	379.08572	351.80750	1679.44763	336.97308	494.72137							
3103	25.850	1076.01636	388.59265	337.01727	1678.63818	337.53113	513.88470							
3104	25.858	1075.81519	398.37650	322.70953	1677.32678	339.05896	531.58063							
3105	25.867	1075.41040	408.33371	309.60672	1675.83276	341.40994	547.70337							
3106	25.875	1074.91187	418.28271	296.93802	1673.84326	344.11737	562.15546							
3107	25.883	1074.15881	428.19049	285.18292	1671.75415	347.18469	574.91760							
3108	25.892	1073.29480	438.13052	274.38657	1669.56384	350.41672	585.85352							
3109	25.900	1072.25244	446.61032	264.57492	1667.24036	353.50839	594.98328							
3110	25.908	1071.13269	455.64124	255.06842	1665.01379	356.47238	602.37115							
3111	25.917	1069.58496	463.03333	247.39110	1662.78796	359.33099	607.96051							
3112	25.925	1068.37085	469.91461	240.68213	1660.97864	361.03925	611.78821							
3113	25.933	1067.07837	475.18604	235.45049	1659.24548	362.58139	614.12354							
3114	25.942	1065.48950	479.20712	231.47919	1657.71423	363.48383	614.80200							
3115	25.950	1063.74353	481.98389	228.58821	1656.38696	363.86026	613.82092							
3116	25.958	1061.78528	483.19376	227.06253	1655.09290	363.63922	611.27863							
3117	25.967	1059.89343	482.73340	226.96504	1653.95032	362.81738	607.01477							
3118	25.975	1057.94177	480.56915	228.10760	1652.84485	361.32007	600.95026							
3119	25.983	1055.68921	476.82004	230.63405	1651.86267	359.46805	593.07391							
3120	25.992	1053.77661	471.51465	234.59692	1650.81665	357.34546	583.43195							
3121	26.000	1051.72156	464.61768	239.97403	1649.52771	355.44171	571.97198							
3122	26.008	1049.75244	456.34219	246.93347	1648.49902	353.05905	558.52130							
3123	26.017	1047.88208	446.56885	255.20050	1647.22815	351.23962	543.26929							
3124	26.025	1046.55933	435.93054	264.53363	1646.05701	349.99384	526.22192							
3125	26.033	1045.29834	424.53204	276.55566	1644.49377	349.84500	507.68927							
3126	26.042	1044.08411	412.75507	288.75607	1643.48596	349.97531	487.89560							
3127	26.050	1042.77222	400.66498	301.81302	1641.93140	351.57062	466.88687							
3128	26.058	1041.70203	388.82019	316.08377	1640.25684	354.20044	445.18292							
3129	26.067	1040.90466	376.98093	331.07047	1638.39172	358.11462	422.96365							
3130	26.075	1040.56934	365.69302	346.97900	1636.35498	363.44040	400.62265							
3131	26.083	1040.05591	354.80502	363.20581	1634.15186	370.00967	378.36111							
3132	26.092	1039.94043	344.20233	380.87891	1631.79065	377.75943	356.46243							
3133	26.100	1040.57495	334.42706	398.53940	1629.42944	386.65948	335.29187							
3134	26.108	1040.97400	325.84769	418.10880	1626.44031	396.70267	315.29855							
3135	26.117	1041.62561	319.66132	436.98572	1623.51001	407.19037	297.12729							
3136	26.125	1042.94641	315.00580	456.31339	1620.80957	417.87305	281.03494							
3137	26.133	1044.20752	310.78058	475.47964	1617.99792	428.49866	267.10913							
3138	26.142	1045.89392	308.49442	494.10303	1615.78333	438.76154	255.32195							
3139	26.150	1048.10681	307.58075	512.73639	1614.11743	448.05313	245.50307							
3140	26.158	1051.12305	308.00522	530.13336	1612.87915	456.50961	237.56490							
3141	26.167	1053.75305	308.47299	546.60486	1612.40149	463.76703	231.48621							
3142	26.175	1056.43506	310.81021	561.32141	1612.24133	469.57883	227.32027							
3143	26.183	1059.63281	312.81284	574.39520	1612.91931	474.09271	224.64175							
3144	26.192	1062.28320	314.94135	585.69043	1613.91541	476.91675	223.39366							
3145	26.200	1064.98169	317.41510	594.81946	1615.39148	478.36386	223.54224							
3146	26.208	1062.14966	318.07623	597.20868	1617.18823	478.28229	224.72981							
3147	26.217	1059.74768	317.93027	596.62842	1619.27258	476.72614	226.80577							
